#!OML:ASF E:\emotionWalksFemale\Project 1\Capture day 1\Session 1\Female1.ASF
:FULLY-SPECIFIED
:DEGREES
64
root 7.52188 15.1478 41.0338 -176.979 1.96423 -180.769
lowerback 8.68786 0.693953 -0.927174
upperback -2.73562 0.827427 -0.0037641
thorax -7.78089 0.452307 0.390847
lowerneck -2.94221 -1.81172 -4.37489
upperneck -0.74004 -2.24368 5.38213
head 0.392817 -1.06064 2.42293
rclavicle 2.40405e-015 -2.98177e-016
rhumerus -40.1224 8.55775 -91.85
rradius 33
rwrist 15.675
rhand -3.92555 -56.1886
rfingers 7.12502
rthumb 21.8254 -84.9779
lclavicle 2.40405e-015 -2.98177e-016
lhumerus -43.3421 -3.76492 87.234
lradius 35.5598
lwrist -14.0201
lhand -3.60326 -34.3854
lfingers 7.12502
lthumb 22.1349 -5.63251
rfemur -30.2055 10.641 20.2035
rtibia 34.0261
rfoot -22.012 -24.2702
rtoes 12.6236
lfemur -0.590774 -19.801 -31.8873
ltibia 17.561
lfoot -24.979 23.5706
ltoes -19.9766
65
root 7.51983 15.1454 40.9864 -177.018 2.01498 -180.695
lowerback 8.77225 0.693379 -0.852961
upperback -2.692 0.833858 0.000293223
thorax -7.78191 0.451307 0.351793
lowerneck -2.90874 -1.84116 -4.26395
upperneck -0.881263 -2.27957 5.36081
head 0.342585 -1.07835 2.39545
rclavicle -4.90284e-015 2.88238e-015
rhumerus -40.061 8.46631 -91.8018
rradius 33.0615
rwrist 16.1411
rhand -3.70357 -56.1083
rfingers 7.12502
rthumb 22.0386 -84.8726
lclavicle -4.90284e-015 2.88238e-015
lhumerus -43.0597 -3.81089 87.2543
lradius 35.4594
lwrist -14.0784
lhand -3.97236 -34.6673
lfingers 7.12502
lthumb 21.7805 -5.87287
rfemur -30.2012 11.4949 19.9588
rtibia 32.908
rfoot -22.1215 -24.8472
rtoes 12.8034
lfemur -0.0768837 -19.7623 -31.9308
ltibia 17.06
lfoot -24.8973 23.6903
ltoes -20.0667
66
root 7.52099 15.1427 40.9448 -177.092 2.12897 -181.036
lowerback 9.02856 0.755662 -1.27884
upperback -2.68522 0.859057 -0.0480041
thorax -7.92984 0.483196 0.533483
lowerneck -2.98199 -1.88982 -4.43573
upperneck -0.970723 -2.3296 5.56254
head 0.335509 -1.09908 2.49313
rclavicle -4.22107e-015 4.47266e-015
rhumerus -40.0801 8.57797 -91.7436
rradius 33.0343
rwrist 16.1624
rhand -3.49316 -56.2113
rfingers 7.12502
rthumb 22.2406 -84.9516
lclavicle -4.22107e-015 4.47266e-015
lhumerus -42.8679 -3.89432 87.4645
lradius 35.4589
lwrist -14.0571
lhand -4.47003 -35.0896
lfingers 7.12502
lthumb 21.3025 -6.24035
rfemur -30.2364 12.562 19.2135
rtibia 31.83
rfoot -21.8252 -25.8242
rtoes 11.0995
lfemur 0.418007 -19.8195 -32.4109
ltibia 16.5587
lfoot -24.7707 23.8548
ltoes -19.7096
67
root 7.52509 15.1437 40.8954 -177.132 2.20391 -181.405
lowerback 9.14134 0.81001 -1.79714
upperback -2.68934 0.864426 -0.0852237
thorax -8.00835 0.511018 0.783479
lowerneck -3.11562 -1.91604 -4.56833
upperneck -0.866431 -2.35866 5.72636
head 0.39776 -1.10957 2.57064
rclavicle -1.00666e-014 5.96354e-016
rhumerus -40.1282 8.56055 -91.6673
rradius 32.9216
rwrist 16.1808
rhand -3.48636 -56.7211
rfingers 7.12502
rthumb 22.2471 -85.4607
lclavicle -1.00666e-014 5.96354e-016
lhumerus -42.4627 -3.7826 87.6644
lradius 35.1556
lwrist -14.4695
lhand -4.95748 -35.0077
lfingers 7.12502
lthumb 20.8343 -6.10631
rfemur -30.2192 13.6019 18.4184
rtibia 30.7328
rfoot -21.6543 -26.4252
rtoes 10.0237
lfemur 0.840093 -19.817 -32.9081
ltibia 16.2308
lfoot -24.6765 24.0207
ltoes -19.8964
68
root 7.53183 15.1481 40.8451 -177.135 1.70248 -181.318
lowerback 9.19222 0.607947 -1.76513
upperback -2.67513 0.601134 -0.0201718
thorax -8.01518 0.38252 0.876062
lowerneck -3.05619 -1.91443 -4.56637
upperneck -0.922674 -2.35597 5.74917
head 0.369955 -1.1088 2.57854
rclavicle -1.4474e-015 9.93923e-017
rhumerus -40.1819 8.80034 -91.8418
rradius 32.9262
rwrist 15.7218
rhand -3.43982 -56.8722
rfingers 7.12502
rthumb 22.2918 -85.6064
lclavicle -1.4474e-015 9.93923e-017
lhumerus -42.2775 -3.5653 87.6963
lradius 35.1211
lwrist -14.9583
lhand -4.98136 -34.7112
lfingers 7.12502
lthumb 20.8113 -5.80727
rfemur -30.1347 14.7818 17.9671
rtibia 29.6661
rfoot -21.0802 -27.7803
rtoes 7.26901
lfemur 1.17867 -19.4731 -32.7162
ltibia 15.925
lfoot -24.4569 23.4273
ltoes -20.8211
69
root 7.53026 15.1464 40.8062 -176.495 2.32218 -181.152
lowerback 8.68104 0.74667 -1.63085
upperback -2.8011 0.816997 -0.00129123
thorax -7.85876 0.483105 0.790357
lowerneck -3.09228 -1.90461 -4.69767
upperneck -1.01236 -2.33159 5.84653
head 0.350147 -1.09435 2.63594
rclavicle -4.22728e-015 -3.97569e-016
rhumerus -40.0724 9.07207 -92.0332
rradius 32.9047
rwrist 15.3967
rhand -2.0547 -55.4602
rfingers 7.12502
rthumb 23.6209 -84.0293
lclavicle -4.22728e-015 -3.97569e-016
lhumerus -41.9594 -3.44055 87.6868
lradius 35.1697
lwrist -15.1297
lhand -4.59832 -34.613
lfingers 7.12502
lthumb 21.1793 -5.74994
rfemur -31.052 16.1229 17.4723
rtibia 28.5029
rfoot -24.711 -26.6609
rtoes 22.5151
lfemur 0.53739 -19.0773 -32.3927
ltibia 15.9524
lfoot -24.7329 23.4108
ltoes -20.1289
70
root 7.53555 15.1469 40.7544 -176.518 1.92859 -181.002
lowerback 8.75271 0.624708 -1.39693
upperback -2.74103 0.678652 -0.00531206
thorax -7.82846 0.402804 0.67564
lowerneck -3.00721 -1.99311 -4.5319
upperneck -1.27268 -2.44291 5.8007
head 0.256401 -1.15025 2.58947
rclavicle -1.23557e-014 9.93923e-017
rhumerus -39.9436 8.8112 -91.957
rradius 32.7946
rwrist 15.7986
rhand -3.09497 -56.8229
rfingers 7.12502
rthumb 22.6228 -85.5171
lclavicle -1.23557e-014 9.93923e-017
lhumerus -41.5312 -3.49827 87.6975
lradius 35.1208
lwrist -14.9641
lhand -3.83196 -34.3483
lfingers 7.12502
lthumb 21.9153 -5.56958
rfemur -30.8831 17.2637 17.0802
rtibia 27.3334
rfoot -20.5222 -29.4462
rtoes 9.48626
lfemur 0.678665 -18.8923 -32.2057
ltibia 16.1749
lfoot -24.929 22.9471
ltoes -20.7509
